HIERARCHY
ROOT Hips
{
	OFFSET 0.00000 0.00000 0.00000
	CHANNELS 6 Xposition Yposition Zposition Yrotation Zrotation Xrotation 
	JOINT Lumbar
	{
		OFFSET 0 0 0
		CHANNELS 3 Zrotation Xrotation Yrotation
		JOINT Neck
		{
			OFFSET 0.00 0.2701 0.00
			CHANNELS 3 Zrotation Xrotation Yrotation
			End Site
			{
				OFFSET 0.00 0.1379 0.00
			}
		}
		JOINT RightShoulder
		{
			OFFSET 0.0119 0.2289 0.1181
			CHANNELS 3 Zrotation Xrotation Yrotation
			JOINT RightElbow
			{
				OFFSET 0.00 -0.1475 0.00
				CHANNELS 2 Zrotation Yrotation
				JOINT RightWrist
				{
					OFFSET 0.00 -0.1605 0.00
					CHANNELS 2 Zrotation Xrotation
					End Site
					{
						OFFSET 0.0040 -0.1068 0.0006
					}
				}
			}
		}
		JOINT LeftShoulder
		{
			OFFSET 0.0119 0.2289 -0.1181
			CHANNELS 3 Zrotation Xrotation Yrotation
			JOINT LeftElbow
			{
				OFFSET 0.00 -0.1475 0.00
				CHANNELS 2 Zrotation Yrotation
				JOINT LeftWrist
				{
					OFFSET 0.00 -0.1605 0.00
					CHANNELS 2 Zrotation Xrotation
					End Site
					{
						OFFSET 0.0040 -0.1068 -0.0006
					}
				}
			}
		}
	}
	JOINT RightHip
	{
		OFFSET 0.0316 -0.0424 0.0458
		CHANNELS 3 Zrotation Xrotation Yrotation
		JOINT RightKnee
		{
			OFFSET 0.00 -0.2438 0.00
			CHANNELS 1 Zrotation
			JOINT RightAnkle
			{
				OFFSET 0.00 -0.2449 0.00
				CHANNELS 3 Zrotation Xrotation Yrotation
				End Site
				{
					OFFSET 0.1237 -0.0542 0.0051
				}
			}
		}
	}
	JOINT LeftHip
	{
		OFFSET 0.0316 -0.0424 -0.0458
		CHANNELS 3 Zrotation Xrotation Yrotation
		JOINT LeftKnee
		{
			OFFSET 0.00 -0.2438 0.00
			CHANNELS 1 Zrotation
			JOINT LeftAnkle
			{
				OFFSET 0.00 -0.2449 0.00
				CHANNELS 3 Zrotation Xrotation Yrotation
				End Site
				{
					OFFSET 0.1237 -0.0542 -0.0051
				}
			}
		}
	}
}
MOTION
Frames: 25
Frame Time: 0.02
0.83978 -0.00214 0.56503 1112.99281 -42.62909 -6.77982 50.91585 3.45381 7.55055 -5.84325 -5.77799 -0.83079 -35.95947 -10.05621 11.28003 73.73896 96.9826 11.9448 0.12916 -31.35128 8.45869 -6.68744 72.56327 -130.27452 21.4033 -5.2909 19.81854 10.3332 13.50715 -0.4625 2.91282 -36.70268 -20.27196 69.02785 14.96048 0.11181 -28.67342 -13.14323 5.51041 3.97588
0.84616 -0.00214 0.55454 1113.03462 -42.46215 -6.77565 51.63445 3.11773 6.99067 -6.35589 -5.43088 -0.83079 -35.52703 -9.68358 10.75117 73.18886 97.39091 12.56487 0.08322 -31.62871 8.22169 -6.19872 72.668 -127.16409 20.9176 -4.71483 19.85673 9.62214 11.81339 -2.95028 0.85288 -32.76746 -18.16297 68.32229 14.40462 -0.40989 -29.73827 -13.07263 5.52244 3.97827
0.85249 -0.00173 0.54341 1113.28008 -42.24658 -6.70633 52.41467 2.74185 6.41939 -6.98155 -5.01834 -0.83079 -35.05122 -9.07989 9.97504 72.48823 98.61222 13.45551 0.16238 -31.80908 8.23084 -5.99011 72.4999 -121.15837 19.57669 -3.69815 20.25872 8.79202 6.65155 -6.19793 -1.21392 -24.09975 -13.53346 67.42691 13.68495 -1.00362 -30.73424 -12.88099 5.532 3.97182
0.85879 -0.0015 0.53258 1113.4535 -42.05077 -6.66446 53.15697 2.38108 5.84834 -7.54963 -4.63494 -0.83079 -34.5927 -8.60494 9.34219 71.87683 99.43079 14.21384 0.17938 -32.03009 8.13349 -5.66764 72.4669 -116.71334 18.7013 -2.91801 20.55277 8.00793 3.25691 -9.18016 -3.24152 -17.9123 -10.22427 66.59285 13.0562 -1.47465 -31.72694 -12.7309 5.53811 3.96604
0.8653 -0.00129 0.5217 1113.53721 -41.86526 -6.62935 53.94894 2.03129 5.29822 -8.14768 -4.25092 -0.83079 -34.14182 -8.03771 8.58562 71.17998 100.34855 15.00709 0.21024 -32.26675 8.00096 -5.2741 72.39702 -111.31362 17.53628 -1.99403 20.60612 7.2471 -0.81327 -11.83974 -5.43468 -10.50515 -6.26222 65.85544 12.35663 -2.30503 -32.87789 -12.63623 5.56116 3.97298
0.87136 -0.00095 0.5108 1113.85974 -41.64672 -6.56615 54.64669 1.65008 4.70092 -8.70775 -3.85456 -0.83079 -33.66603 -7.60561 8.02685 70.62427 101.2654 15.7921 0.24487 -32.44697 8.00441 -5.1006 72.33331 -107.17779 16.75492 -1.2607 21.2462 6.41862 -4.35038 -15.33621 -7.2765 -4.44401 -3.02586 64.87643 11.76481 -2.42224 -33.67897 -12.39939 5.54916 3.95191
0.87627 -0.0003 0.49992 1114.76341 -41.34785 -6.43467 55.09899 1.18864 3.98749 -9.14691 -3.43158 -0.83079 -33.12891 -7.59257 8.05596 70.49794 102.02069 16.50656 0.26354 -32.50051 8.32938 -5.46509 72.37868 -107.32819 17.28286 -1.17141 23.42313 5.37173 -5.57029 -21.07549 -8.1837 -3.31411 -2.44367 63.25942 11.52791 -0.42343 -33.52044 -11.7812 5.44173 3.85502
0.88071 0.00046 0.48906 1115.9062 -41.01796 -6.27882 55.44825 0.69807 3.22545 -9.54132 -3.00044 -0.83079 -32.56968 -7.72389 8.2941 70.51849 102.74583 17.20064 0.28218 -32.49991 8.78269 -6.04254 72.43436 -108.82836 18.21592 -1.2869 26.17666 4.2727 -6.15332 -27.60423 -8.72885 -3.66776 -2.66072 61.41071 11.40286 2.27081 -33.01243 -11.02755 5.29918 3.73049
0.88532 0.00115 0.47826 1116.95775 -40.70231 -6.13849 55.82418 0.22269 2.47776 -9.94829 -2.57888 -0.83079 -32.02224 -7.79529 8.4488 70.46899 103.46519 17.8931 0.29932 -32.51998 9.1759 -6.52654 72.46693 -109.63701 18.93039 -1.30005 28.66246 3.23846 -7.043 -33.699 -9.41383 -3.28151 -2.47813 59.67958 11.21486 4.56013 -32.66902 -10.34784 5.17273 3.61933
0.89012 0.00195 0.46718 1117.94114 -40.3826 -5.97639 56.28669 -0.26373 1.76043 -10.39235 -2.12989 -0.83079 -31.46361 -7.83625 8.54988 70.42615 104.29481 18.64163 0.327 -32.55168 9.58787 -7.01027 72.56575 -110.65721 19.7548 -1.33408 31.18543 2.02754 -7.97373 -40.15454 -10.20307 -3.01101 -2.3631 57.8871 11.06975 7.22015 -32.2982 -9.61138 5.04609 3.50472
0.89441 0.00255 0.45668 1119.12273 -40.06682 -5.8556 56.54454 -0.73181 0.97088 -10.7467 -1.73735 -0.83079 -30.92645 -7.97603 8.81088 70.40885 104.8766 19.26403 0.33119 -32.54956 9.98442 -7.53616 72.53528 -111.61798 20.46546 -1.38283 33.76263 1.17248 -8.62913 -46.01523 -10.68961 -2.91213 -2.32941 56.17334 10.86715 9.27683 -31.90339 -8.96286 4.91085 3.39048
0.89743 0.00257 0.44781 1120.77557 -39.75107 -5.84702 56.25301 -1.15707 -0.02636 -10.86621 -1.49963 -0.83079 -30.42992 -8.36977 9.5025 70.40455 104.78496 19.55045 0.26978 -32.44998 10.33967 -8.17396 72.12283 -111.8826 20.69156 -1.38834 36.34985 1.32577 -8.61492 -50.21022 -10.42352 -2.94673 -2.3365 54.7054 10.45235 9.47333 -31.51841 -8.58833 4.76661 3.28719
0.89995 0.00238 0.43954 1122.62258 -39.44416 -5.88232 55.76025 -1.56001 -1.0904 -10.89581 -1.31989 -0.83079 -29.9604 -8.85591 10.34146 70.42537 104.44094 19.70789 0.18438 -32.32159 10.66898 -8.83811 71.58563 -112.08282 20.80286 -1.40849 38.96851 1.8374 -8.3398 -53.74011 -9.86654 -3.12244 -2.40841 53.33114 9.98151 9.04318 -31.12346 -8.30812 4.61379 3.18471
0.90269 0.0023 0.43099 1124.39028 -39.14541 -5.90341 55.36581 -1.96296 -2.11108 -10.96502 -1.11595 -0.83079 -29.49465 -9.29031 11.088 70.45004 104.20539 19.91829 0.1097 -32.21868 10.98584 -9.45565 71.12139 -112.47198 21.02259 -1.44836 41.57149 2.17684 -8.21093 -57.4637 -9.44577 -3.24149 -2.45505 51.93322 9.55425 8.9164 -30.73955 -7.98641 4.46091 3.07983
0.90546 0.00218 0.42245 1126.12586 -38.79369 -5.90073 54.93986 -2.40914 -3.18997 -11.03895 -0.90265 -0.83079 -28.96075 -9.77135 11.94963 70.41658 103.99307 20.15219 0.03541 -32.06297 11.40422 -10.22071 70.58792 -112.27346 21.03422 -1.39036 44.20536 2.55297 -7.94896 -61.68845 -8.9941 -3.37571 -2.50907 50.4464 9.05436 8.7366 -30.31577 -7.65346 4.32355 2.9825
0.90805 0.00209 0.41405 1127.97494 -38.55536 -5.95663 54.53178 -2.76033 -4.16084 -11.08109 -0.72268 -0.83079 -28.57502 -10.17457 12.60327 70.50666 103.67587 20.30653 -0.04484 -32.00931 11.61011 -10.68989 70.16981 -113.21485 21.42703 -1.52877 46.76893 2.93955 -7.90535 -64.68248 -8.54411 -3.49572 -2.55458 49.17107 8.69094 8.50784 -29.97743 -7.36895 4.15227 2.87005
0.91026 0.00213 0.40589 1130.05726 -38.62391 -6.17791 54.23407 -2.848 -4.83312 -11.06717 -0.62147 -0.83079 -28.59641 -10.34612 12.65042 70.94526 103.10676 20.27559 -0.14024 -32.26063 11.17404 -10.26341 70.09316 -117.77636 23.07573 -2.27955 49.1754 3.25893 -8.56278 -64.5903 -8.15614 -3.52374 -2.54969 48.44978 8.71852 8.30648 -29.87771 -7.18869 3.88979 2.71539
0.9123 0.0022 0.39786 1132.25162 -38.80736 -6.45387 53.95978 -2.84181 -5.39073 -11.02257 -0.55184 -0.83079 -28.76543 -10.43419 12.48121 71.50414 102.44819 20.16948 -0.2396 -32.61314 10.53453 -9.54878 70.13803 -123.40654 25.08132 -3.21453 51.49727 3.57854 -9.44207 -63.24884 -7.78371 -3.53195 -2.53403 47.94077 8.88472 8.07217 -29.86619 -7.05586 3.59373 2.54575
0.9144 0.00224 0.38978 1134.4153 -38.94087 -6.69578 53.66732 -2.883 -5.99064 -10.98606 -0.46703 -0.83079 -28.86373 -10.55621 12.40776 71.9983 101.84287 20.09486 -0.33466 -32.90874 10.0295 -9.01468 70.13252 -128.22751 26.80164 -4.0137 53.82745 3.9035 -10.20439 -62.37934 -7.41579 -3.55051 -2.52464 47.34016 8.98667 7.8434 -29.8157 -6.90616 3.31282 2.38316
0.91655 0.00234 0.3817 1136.50193 -39.06443 -6.97888 53.39883 -2.90405 -6.63609 -10.97179 -0.38714 -0.83079 -28.97748 -10.69916 12.35129 72.53566 101.16403 20.02332 -0.44266 -33.24851 9.35155 -8.27997 70.10324 -134.36788 29.02153 -5.02624 56.29239 4.21692 -11.03904 -61.89838 -6.99105 -3.55724 -2.50521 46.72137 9.09216 7.63326 -29.75935 -6.73969 3.0315 2.21922
0.91857 0.00233 0.37365 1138.77129 -39.23666 -7.18754 53.08952 -2.94434 -7.15639 -10.9042 -0.30448 -0.83079 -29.09475 -10.77647 12.20501 73.01153 100.63483 19.93383 -0.52239 -33.52183 8.97908 -7.88471 70.15267 -138.07123 30.30754 -5.64697 58.44848 4.55098 -11.76206 -60.31147 -6.68916 -3.59689 -2.51192 46.19058 9.22375 7.38431 -29.73706 -6.61844 2.74389 2.05493
0.92031 0.00205 0.36568 1141.5319 -39.50839 -7.18595 52.65545 -3.06639 -7.37765 -10.70554 -0.20058 -0.83079 -29.17702 -10.70209 11.87385 73.28553 100.40862 19.77048 -0.54103 -33.57679 9.55819 -8.58046 70.40122 -134.28534 28.74805 -5.06036 59.83806 4.92843 -12.27048 -56.05961 -6.75644 -3.60139 -2.5169 45.84288 9.39517 7.04054 -29.78195 -6.60808 2.44126 1.89002
0.92193 0.00166 0.35773 1144.46877 -39.82621 -7.10554 52.18203 -3.20986 -7.47333 -10.45351 -0.09404 -0.83079 -29.25902 -10.56319 11.4584 73.49392 100.35531 19.59784 -0.5285 -33.56309 10.44146 -9.61293 70.72309 -128.09649 26.26815 -4.08668 60.90883 5.3263 -12.63227 -50.73238 -6.9461 -3.66328 -2.562 45.5773 9.58805 6.6612 -29.85944 -6.64157 2.13468 1.72591
0.9236 0.00131 0.34975 1147.31486 -40.12751 -7.05551 51.73136 -3.34016 -7.61377 -10.22023 0.00825 -0.83079 -29.34692 -10.44627 11.07244 73.7338 100.31925 19.46114 -0.51727 -33.58804 11.14675 -10.43543 71.00468 -123.34331 24.3307 -3.34447 62.08029 5.72325 -12.96601 -45.8375 -7.05392 -3.78392 -2.63912 45.27909 9.77027 6.29829 -29.92522 -6.65609 1.83373 1.56355
0.92531 0.00103 0.34188 1150.21063 -40.41474 -7.03109 51.25948 -3.48255 -7.80138 -10.00752 0.12402 -0.83079 -29.41646 -10.35402 10.71088 73.97044 99.90288 19.19775 -0.55694 -33.58643 12.01079 -11.48479 71.3205 -117.20431 21.89076 -2.37949 63.42895 6.0895 -13.70857 -41.1086 -7.25605 -3.54591 -2.50562 44.96917 9.96108 5.93235 -29.97979 -6.6683 1.51517 1.39159
